<svg version="1.1" id="dg-logo" viewBox="0 0 52 52">
  <path d="M20,42.985V9.008C12.927,11.469,8,18.153,8,26S12.927,40.523,20,42.985z"/>
  <path d="M26,0C11.641,0,0,11.642,0,26c0,14.359,11.641,26,26,26s26-11.641,26-26C52,11.642,40.359,0,26,0z M24,47.905
    C12.787,46.895,4,37.477,4,26S12.787,5.105,24,4.095V47.905z M28,47.905V4.095C37.18,4.922,44.725,11.387,47.163,20h-4.19
    C41.188,14.875,37.177,10.809,32,9.008v33.978C38.462,40.736,43.119,34.963,43.878,28H36v-4h11.904C47.964,24.659,48,25.325,48,26
    C48,37.477,39.213,46.895,28,47.905z"/>
</svg>
